<?xml version="1.0" encoding="UTF-8" standalone="no" ?>
<!DOCTYPE svg PUBLIC "-//W3C//DTD SVG 1.1//EN" "http://www.w3.org/Graphics/SVG/1.1/DTD/svg11.dtd">
<svg xmlns="http://www.w3.org/2000/svg" xmlns:xlink="http://www.w3.org/1999/xlink" version="1.1" width="80" height="80" viewBox="0 0 1080 1080" xml:space="preserve">
<desc>Created with Fabric.js 5.2.4</desc>
<defs>
</defs>
<g transform="matrix(1 0 0 1 540 540)" id="55366aa3-70ec-4a40-8d17-1285d48b11b3"  >
<rect style="stroke: none; stroke-width: 1; stroke-dasharray: none; stroke-linecap: butt; stroke-dashoffset: 0; stroke-linejoin: miter; stroke-miterlimit: 4; fill: rgb(255,255,255); fill-rule: nonzero; opacity: 1; visibility: hidden;" vector-effect="non-scaling-stroke"  x="-540" y="-540" rx="0" ry="0" width="1080" height="1080" />
</g>
<g transform="matrix(1 0 0 1 540 540)" id="2af2a31d-a2af-4784-96fc-516e23972552"  >
</g>
<g transform="matrix(1 0 0 1 540 540)"  >
<g style="" vector-effect="non-scaling-stroke"   >
		<g transform="matrix(1 0 0 1 0 0)"  >
<path style="stroke: none; stroke-width: 1; stroke-dasharray: none; stroke-linecap: butt; stroke-dashoffset: 0; stroke-linejoin: miter; stroke-miterlimit: 4; fill: rgb(254,254,254); fill-rule: nonzero; opacity: 1;" vector-effect="non-scaling-stroke"  transform=" translate(-250, -250)" d="M 0 0 C 165 0 330 0 500 0 C 500 165 500 330 500 500 C 335 500 170 500 0 500 C 0 335 0 170 0 0 Z" stroke-linecap="round" />
</g>
		<g transform="matrix(1 0 0 1 -39.16 -22.8)"  >
<path style="stroke: none; stroke-width: 1; stroke-dasharray: none; stroke-linecap: butt; stroke-dashoffset: 0; stroke-linejoin: miter; stroke-miterlimit: 4; fill: rgb(33,80,156); fill-rule: nonzero; opacity: 1;" vector-effect="non-scaling-stroke"  transform=" translate(-11.09, -191.95)" d="M 0 0 C 10.13204847 8.5409145 19.9280778 21.02604407 21.25 34.75 C 22.31379701 49.11970253 20.13480364 61.11572825 11.0546875 72.54296875 C 10.06528987 76.48615057 10.70634326 77.28062008 12.59765625 80.78125 C 13.80165875 82.77899855 15.02002073 84.76813919 16.25 86.75 C 17.46724097 88.88761407 18.67665316 91.02970181 19.87890625 93.17578125 C 21.18867605 95.47218685 22.49981899 97.76776199 23.8125 100.0625 C 24.15539062 100.66318298 24.49828125 101.26386597 24.8515625 101.88275146 C 30.27278963 111.37774215 35.78747897 120.81316594 41.43969727 130.1730957 C 41.94428467 131.01573975 42.44887207 131.85838379 42.96875 132.7265625 C 43.41154297 133.45955566 43.85433594 134.19254883 44.31054688 134.94775391 C 45.25 136.75 45.25 136.75 45.25 138.75 C 46.19359375 138.71519531 47.1371875 138.68039063 48.109375 138.64453125 C 63.75856958 138.31457835 77.49755985 141.5951867 89.625 152.125 C 101.45531474 163.48210215 107.14609734 176.44975298 107.5 192.875 C 107.19487094 207.67375942 101.34802965 219.94339275 91.375 230.7890625 C 79.34683309 242.1657037 64.50489543 245.21288028 48.58203125 244.85546875 C 47.48246094 244.82066406 46.38289062 244.78585937 45.25 244.75 C 45.04761719 245.51828125 44.84523437 246.2865625 44.63671875 247.078125 C 42.68745815 252.23954744 39.8840619 256.77103307 37.0625 261.5 C 35.80137159 263.63629874 34.54098207 265.77303381 33.28125 267.91015625 C 32.62382812 269.02277832 31.96640625 270.13540039 31.2890625 271.28173828 C 27.83608619 277.14136592 24.45357946 283.04192501 21.0625 288.9375 C 19.81941046 291.09788649 18.5759474 293.25805811 17.33203125 295.41796875 C 16.80843018 296.32828857 16.2848291 297.2386084 15.74536133 298.17651367 C 14.71513176 299.94951774 13.6478941 301.70135847 12.55126953 303.43408203 C 11.03688048 305.65470971 11.03688048 305.65470971 11.34765625 308.13671875 C 12.49161593 311.44974485 14.04381339 314.47886542 15.6875 317.5625 C 21.8939517 329.7372361 23.43871758 342.24626944 19.625 355.5625 C 14.16643855 371.07327145 5.75850276 381.35095065 -8.8125 389 C -16.55571278 392.5480279 -23.4488342 394.31219316 -32 394.25 C -32.92022949 394.24427979 -33.84045898 394.23855957 -34.78857422 394.23266602 C -42.56398489 394.02998943 -48.86415789 392.46646821 -55.75 388.75 C -56.71164063 388.24210937 -57.67328125 387.73421875 -58.6640625 387.2109375 C -69.96327438 380.64307605 -76.63252835 371.61246707 -81.75 359.75 C -82.11222656 358.95207031 -82.47445312 358.15414063 -82.84765625 357.33203125 C -87.0501918 345.30659403 -85.62483828 331.28280325 -80.75 319.75 C -73.93509838 305.63711512 -63.63176115 295.60737355 -48.6875 290.375 C -44.69110943 289.14242402 -41.55488764 288.66211712 -37.44921875 289.203125 C -32.55259586 289.74279805 -28.22920211 290.09142368 -23.75 287.75 C -18.30174609 281.93406445 -14.9905171 274.44060245 -11.52626038 267.33427429 C -8.25295585 260.62427717 -4.47811009 254.23981181 -0.6875 247.8125 C 1.08153388 244.76790329 2.8412103 241.71894875 4.58129883 238.65771484 C 5.72597585 236.66311304 6.89937169 234.68480032 8.09643555 232.72119141 C 8.66789307 231.75487793 9.23935059 230.78856445 9.828125 229.79296875 C 10.34922852 228.93598389 10.87033203 228.07899902 11.40722656 227.19604492 C 12.53900166 224.73321616 12.53900166 224.73321616 11.3581543 222.21435547 C 10.33366007 220.61748958 9.24898411 219.0586813 8.12890625 217.52734375 C 0.8728425 206.80164453 -0.12120198 194.02247242 1.7265625 181.52734375 C 3.4257984 173.59416408 6.91950275 166.60358654 11.49975586 159.92871094 C 12.52818601 157.6950341 12.52818601 157.6950341 11.32226562 155.29003906 C 10.77248047 154.37448242 10.22269531 153.45892578 9.65625 152.515625 C 8.73875977 150.95932373 8.73875977 150.95932373 7.80273438 149.37158203 C 7.12533203 148.25895996 6.44792969 147.14633789 5.75 146 C 5.05895819 144.8393233 4.36952371 143.67768824 3.68164062 142.51513672 C 2.2575284 140.11259748 0.82533077 137.71517268 -0.61328125 135.32128906 C -3.88224337 129.87240338 -7.05937332 124.36996816 -10.25 118.875 C -11.86904321 116.10098868 -13.48911059 113.32852862 -15.13330078 110.56933594 C -16.29174824 108.54913793 -17.38188655 106.48917362 -18.42529297 104.40722656 C -21.05623382 98.70425987 -21.05623382 98.70425987 -25.68652344 94.86767578 C -27.8619813 94.70639366 -29.72397355 94.89594292 -31.875 95.25 C -33.37908252 95.3704639 -34.88444803 95.47581523 -36.390625 95.56640625 C -37.49760742 95.64012451 -37.49760742 95.64012451 -38.62695312 95.71533203 C -50.75998622 95.91345654 -62.13933619 87.46678413 -70.75 79.75 C -82.09056986 65.74861683 -86.34242073 51.78297148 -84.75 33.75 C -82.20379192 20.4224194 -75.02074524 7.88751268 -64.0390625 -0.26171875 C -44.41057624 -13.08745566 -19.40029826 -14.41642854 0 0 Z" stroke-linecap="round" />
</g>
		<g transform="matrix(1 0 0 1 133.09 51.81)"  >
<path style="stroke: none; stroke-width: 1; stroke-dasharray: none; stroke-linecap: butt; stroke-dashoffset: 0; stroke-linejoin: miter; stroke-miterlimit: 4; fill: rgb(217,217,217); fill-rule: nonzero; opacity: 1;" vector-effect="non-scaling-stroke"  transform=" translate(77.2, -116.1)" d="M 0 0 C 9.1236794 7.51631978 16.19055123 18.64305371 18.703125 30.29296875 C 20.27398868 49.50721658 17.68050594 63.26543865 5.05078125 78.25390625 C -2.14167677 86.00483748 -11.33681208 90.19039324 -21.296875 93.29296875 C -21.90273438 93.51726562 -22.50859375 93.7415625 -23.1328125 93.97265625 C -25.296875 94.29296875 -25.296875 94.29296875 -28.84375 93.625 C -33.75103342 92.86165788 -37.87448266 92.80055282 -42.296875 95.29296875 C -47.9733541 101.65575958 -51.57789096 109.77003096 -55.32794189 117.37445068 C -58.74894756 124.30917509 -62.62877048 130.94296291 -66.546875 137.60546875 C -68.30906604 140.64889949 -70.06663615 143.69459282 -71.81054688 146.74853516 C -72.72832765 148.31967695 -73.67711204 149.87370666 -74.67382812 151.39599609 C -75.99795998 153.36274283 -75.99795998 153.36274283 -77.296875 156.29296875 C -76.85708037 158.94550089 -76.85708037 158.94550089 -75.296875 161.29296875 C -74.8225 162.23914063 -74.348125 163.1853125 -73.859375 164.16015625 C -72.81983839 166.16126422 -71.77817928 168.16127105 -70.734375 170.16015625 C -65.5122306 181.54102529 -65.05282042 196.69385527 -69.421875 208.48046875 C -70.32720876 210.4432932 -71.28342313 212.38372169 -72.296875 214.29296875 C -72.75449219 215.19273437 -73.21210938 216.0925 -73.68359375 217.01953125 C -80.49087332 229.36588487 -92.06678894 238.5649403 -105.6015625 242.62890625 C -122.36672436 245.64167318 -136.83664784 243.54484305 -151.109375 234.10546875 C -163.1597196 225.58118382 -169.62146735 213.60636269 -172.78515625 199.37890625 C -175.17614169 184.95998642 -171.65901026 170.73016128 -163.2890625 158.75 C -155.15458549 148.71747835 -143.88958234 141.47925911 -131.296875 138.29296875 C -127.83326529 138.06675174 -124.39084885 138.10363685 -120.921875 138.16796875 C -119.99503906 138.17699219 -119.06820312 138.18601562 -118.11328125 138.1953125 C -115.84087423 138.21873938 -113.5690132 138.25154127 -111.296875 138.29296875 C -111.02770264 137.5764917 -110.75853027 136.86001465 -110.48120117 136.12182617 C -109.28732626 133.27016082 -107.90231957 130.70210645 -106.34765625 128.03125 C -105.45675293 126.49440552 -105.45675293 126.49440552 -104.54785156 124.92651367 C -103.58830566 123.28259644 -103.58830566 123.28259644 -102.609375 121.60546875 C -101.60247306 119.87096322 -100.59557684 118.13645434 -99.58901978 116.40174866 C -98.53832422 114.59182279 -97.48623546 112.78271149 -96.43408203 110.97363281 C -94.30574146 107.31146156 -92.18841719 103.64300613 -90.07421875 99.97265625 C -89.56421074 99.08736488 -89.56421074 99.08736488 -89.04389954 98.18418884 C -88.04479142 96.44967304 -87.04583194 94.71507162 -86.046875 92.98046875 C -84.81300805 90.83824896 -83.57866822 88.69630144 -82.34375 86.5546875 C -81.82651367 85.65709717 -81.30927734 84.75950684 -80.77636719 83.8347168 C -79.76093867 82.09022401 -78.67866226 80.38347277 -77.54394531 78.71411133 C -76.09423633 76.43548245 -76.09423633 76.43548245 -76.49609375 74.21484375 C -77.30309132 72.27804958 -78.14323222 70.40596917 -79.109375 68.54296875 C -79.46257812 67.85203125 -79.81578125 67.16109375 -80.1796875 66.44921875 C -80.54835938 65.73765625 -80.91703125 65.02609375 -81.296875 64.29296875 C -82.02985286 62.87827022 -82.75914991 61.46165724 -83.484375 60.04296875 C -83.80792969 59.4190625 -84.13148438 58.79515625 -84.46484375 58.15234375 C -88.87115899 48.30536696 -87.84279852 32.88725595 -84.171875 22.98046875 C -81.73907721 17.71627918 -78.79557492 12.91087644 -75.296875 8.29296875 C -74.554375 7.26171875 -73.811875 6.23046875 -73.046875 5.16796875 C -52.99953678 -15.79061212 -22.73076333 -16.89344145 0 0 Z" stroke-linecap="round" />
</g>
		<g transform="matrix(1 0 0 1 89.95 -171.8)"  >
<path style="stroke: none; stroke-width: 1; stroke-dasharray: none; stroke-linecap: butt; stroke-dashoffset: 0; stroke-linejoin: miter; stroke-miterlimit: 4; fill: rgb(217,217,217); fill-rule: nonzero; opacity: 1;" vector-effect="non-scaling-stroke"  transform=" translate(33.78, -42.19)" d="M 0 0 C 10.23787191 8.65804901 17.52498051 20.59403109 19.26953125 33.99609375 C 20.34285683 51.32766257 16.80957766 65.06818471 5.58203125 78.68359375 C -3.79636733 88.71671073 -17.03541725 94.88614846 -30.77368164 95.53710938 C -45.79701992 95.69695145 -60.02144367 90.5695184 -71.04296875 80.24609375 C -82.03058981 68.39042779 -87.1579163 54.54908773 -87.01171875 38.50390625 C -85.87012167 24.26565383 -78.94402134 11.6875478 -68.73046875 1.99609375 C -48.71097208 -14.87279361 -21.09181225 -15.47939869 0 0 Z" stroke-linecap="round" />
</g>
		<g transform="matrix(1 0 0 1 -168.13 -22.8)"  >
<path style="stroke: none; stroke-width: 1; stroke-dasharray: none; stroke-linecap: butt; stroke-dashoffset: 0; stroke-linejoin: miter; stroke-miterlimit: 4; fill: rgb(217,217,217); fill-rule: nonzero; opacity: 1;" vector-effect="non-scaling-stroke"  transform=" translate(33.83, -41.17)" d="M 0 0 C 5.8907083 4.9851218 9.84647544 10.09972842 13.3046875 16.96484375 C 13.79066406 17.77566406 14.27664062 18.58648437 14.77734375 19.421875 C 20.3942297 30.10803963 20.40254999 45.46062217 17.41796875 57.0546875 C 14.90160697 64.08545248 11.00984641 70.19754981 6.3046875 75.96484375 C 5.75554687 76.66222656 5.20640625 77.35960937 4.640625 78.078125 C -3.14251094 86.90701269 -16.21781037 92.96809735 -27.89599609 94.19628906 C -38.74342167 94.86074906 -47.8838521 94.05383398 -57.6953125 88.96484375 C -58.4275 88.59230469 -59.1596875 88.21976562 -59.9140625 87.8359375 C -61.96741689 86.66666625 -63.8107987 85.39045399 -65.6953125 83.96484375 C -66.89607422 83.06185547 -66.89607422 83.06185547 -68.12109375 82.140625 C -77.80644607 74.18952393 -85.11411588 62.55360149 -86.6953125 49.96484375 C -88.06234899 33.83096518 -85.7203411 21.09224693 -75.6953125 7.96484375 C -75.07914063 7.13984375 -74.46296875 6.31484375 -73.828125 5.46484375 C -54.74704641 -16.9012557 -22.36334518 -16.88594614 0 0 Z" stroke-linecap="round" />
</g>
</g>
</g>
</svg>